%TF.GenerationSoftware,KiCad,Pcbnew,10.0.7*%
%TF.CreationDate,2026-10-09T11:17:46+05:30*%
%TF.ProjectId,OR_GATE,4f525f47-4154-4452-9e6b-696361645f70,rev?*%
%TF.SameCoordinates,Original*%
%TF.FileFunction,Legend,Top*%
%TF.FilePolarity,Positive*%
%FSLAX46Y46*%
G04 Gerber Fmt 4.6, Leading zero omitted, Abs format (unit mm)*
G04 Created by KiCad (PCBNEW 10.0.7) date 2026-10-09 11:17:46*
%MOMM*%
%LPD*%
G01*
G04 APERTURE LIST*
%ADD10C,0.150000*%
%ADD11C,0.120000*%
G04 APERTURE END LIST*
D10*
X118316667Y-110407200D02*
X118459524Y-110454819D01*
X118459524Y-110454819D02*
X118697619Y-110454819D01*
X118697619Y-110454819D02*
X118792857Y-110407200D01*
X118792857Y-110407200D02*
X118840476Y-110359580D01*
X118840476Y-110359580D02*
X118888095Y-110264342D01*
X118888095Y-110264342D02*
X118888095Y-110169104D01*
X118888095Y-110169104D02*
X118840476Y-110073866D01*
X118840476Y-110073866D02*
X118792857Y-110026247D01*
X118792857Y-110026247D02*
X118697619Y-109978628D01*
X118697619Y-109978628D02*
X118507143Y-109931009D01*
X118507143Y-109931009D02*
X118411905Y-109883390D01*
X118411905Y-109883390D02*
X118364286Y-109835771D01*
X118364286Y-109835771D02*
X118316667Y-109740533D01*
X118316667Y-109740533D02*
X118316667Y-109645295D01*
X118316667Y-109645295D02*
X118364286Y-109550057D01*
X118364286Y-109550057D02*
X118411905Y-109502438D01*
X118411905Y-109502438D02*
X118507143Y-109454819D01*
X118507143Y-109454819D02*
X118745238Y-109454819D01*
X118745238Y-109454819D02*
X118888095Y-109502438D01*
X119221429Y-109454819D02*
X119459524Y-110454819D01*
X119459524Y-110454819D02*
X119650000Y-109740533D01*
X119650000Y-109740533D02*
X119840476Y-110454819D01*
X119840476Y-110454819D02*
X120078572Y-109454819D01*
X120983333Y-110454819D02*
X120411905Y-110454819D01*
X120697619Y-110454819D02*
X120697619Y-109454819D01*
X120697619Y-109454819D02*
X120602381Y-109597676D01*
X120602381Y-109597676D02*
X120507143Y-109692914D01*
X120507143Y-109692914D02*
X120411905Y-109740533D01*
X118066667Y-95567200D02*
X118209524Y-95614819D01*
X118209524Y-95614819D02*
X118447619Y-95614819D01*
X118447619Y-95614819D02*
X118542857Y-95567200D01*
X118542857Y-95567200D02*
X118590476Y-95519580D01*
X118590476Y-95519580D02*
X118638095Y-95424342D01*
X118638095Y-95424342D02*
X118638095Y-95329104D01*
X118638095Y-95329104D02*
X118590476Y-95233866D01*
X118590476Y-95233866D02*
X118542857Y-95186247D01*
X118542857Y-95186247D02*
X118447619Y-95138628D01*
X118447619Y-95138628D02*
X118257143Y-95091009D01*
X118257143Y-95091009D02*
X118161905Y-95043390D01*
X118161905Y-95043390D02*
X118114286Y-94995771D01*
X118114286Y-94995771D02*
X118066667Y-94900533D01*
X118066667Y-94900533D02*
X118066667Y-94805295D01*
X118066667Y-94805295D02*
X118114286Y-94710057D01*
X118114286Y-94710057D02*
X118161905Y-94662438D01*
X118161905Y-94662438D02*
X118257143Y-94614819D01*
X118257143Y-94614819D02*
X118495238Y-94614819D01*
X118495238Y-94614819D02*
X118638095Y-94662438D01*
X118971429Y-94614819D02*
X119209524Y-95614819D01*
X119209524Y-95614819D02*
X119400000Y-94900533D01*
X119400000Y-94900533D02*
X119590476Y-95614819D01*
X119590476Y-95614819D02*
X119828572Y-94614819D01*
X120161905Y-94710057D02*
X120209524Y-94662438D01*
X120209524Y-94662438D02*
X120304762Y-94614819D01*
X120304762Y-94614819D02*
X120542857Y-94614819D01*
X120542857Y-94614819D02*
X120638095Y-94662438D01*
X120638095Y-94662438D02*
X120685714Y-94710057D01*
X120685714Y-94710057D02*
X120733333Y-94805295D01*
X120733333Y-94805295D02*
X120733333Y-94900533D01*
X120733333Y-94900533D02*
X120685714Y-95043390D01*
X120685714Y-95043390D02*
X120114286Y-95614819D01*
X120114286Y-95614819D02*
X120733333Y-95614819D01*
X135610057Y-103365238D02*
X135562438Y-103460476D01*
X135562438Y-103460476D02*
X135467200Y-103555714D01*
X135467200Y-103555714D02*
X135324342Y-103698571D01*
X135324342Y-103698571D02*
X135276723Y-103793809D01*
X135276723Y-103793809D02*
X135276723Y-103889047D01*
X135514819Y-103841428D02*
X135467200Y-103936666D01*
X135467200Y-103936666D02*
X135371961Y-104031904D01*
X135371961Y-104031904D02*
X135181485Y-104079523D01*
X135181485Y-104079523D02*
X134848152Y-104079523D01*
X134848152Y-104079523D02*
X134657676Y-104031904D01*
X134657676Y-104031904D02*
X134562438Y-103936666D01*
X134562438Y-103936666D02*
X134514819Y-103841428D01*
X134514819Y-103841428D02*
X134514819Y-103650952D01*
X134514819Y-103650952D02*
X134562438Y-103555714D01*
X134562438Y-103555714D02*
X134657676Y-103460476D01*
X134657676Y-103460476D02*
X134848152Y-103412857D01*
X134848152Y-103412857D02*
X135181485Y-103412857D01*
X135181485Y-103412857D02*
X135371961Y-103460476D01*
X135371961Y-103460476D02*
X135467200Y-103555714D01*
X135467200Y-103555714D02*
X135514819Y-103650952D01*
X135514819Y-103650952D02*
X135514819Y-103841428D01*
X134610057Y-103031904D02*
X134562438Y-102984285D01*
X134562438Y-102984285D02*
X134514819Y-102889047D01*
X134514819Y-102889047D02*
X134514819Y-102650952D01*
X134514819Y-102650952D02*
X134562438Y-102555714D01*
X134562438Y-102555714D02*
X134610057Y-102508095D01*
X134610057Y-102508095D02*
X134705295Y-102460476D01*
X134705295Y-102460476D02*
X134800533Y-102460476D01*
X134800533Y-102460476D02*
X134943390Y-102508095D01*
X134943390Y-102508095D02*
X135514819Y-103079523D01*
X135514819Y-103079523D02*
X135514819Y-102460476D01*
X140324819Y-96166666D02*
X139848628Y-96499999D01*
X140324819Y-96738094D02*
X139324819Y-96738094D01*
X139324819Y-96738094D02*
X139324819Y-96357142D01*
X139324819Y-96357142D02*
X139372438Y-96261904D01*
X139372438Y-96261904D02*
X139420057Y-96214285D01*
X139420057Y-96214285D02*
X139515295Y-96166666D01*
X139515295Y-96166666D02*
X139658152Y-96166666D01*
X139658152Y-96166666D02*
X139753390Y-96214285D01*
X139753390Y-96214285D02*
X139801009Y-96261904D01*
X139801009Y-96261904D02*
X139848628Y-96357142D01*
X139848628Y-96357142D02*
X139848628Y-96738094D01*
X140324819Y-95214285D02*
X140324819Y-95785713D01*
X140324819Y-95499999D02*
X139324819Y-95499999D01*
X139324819Y-95499999D02*
X139467676Y-95595237D01*
X139467676Y-95595237D02*
X139562914Y-95690475D01*
X139562914Y-95690475D02*
X139610533Y-95785713D01*
X134074819Y-87833333D02*
X134789104Y-87833333D01*
X134789104Y-87833333D02*
X134931961Y-87880952D01*
X134931961Y-87880952D02*
X135027200Y-87976190D01*
X135027200Y-87976190D02*
X135074819Y-88119047D01*
X135074819Y-88119047D02*
X135074819Y-88214285D01*
X135074819Y-86833333D02*
X135074819Y-87404761D01*
X135074819Y-87119047D02*
X134074819Y-87119047D01*
X134074819Y-87119047D02*
X134217676Y-87214285D01*
X134217676Y-87214285D02*
X134312914Y-87309523D01*
X134312914Y-87309523D02*
X134360533Y-87404761D01*
X128454819Y-95738094D02*
X127454819Y-95738094D01*
X127454819Y-95738094D02*
X127454819Y-95499999D01*
X127454819Y-95499999D02*
X127502438Y-95357142D01*
X127502438Y-95357142D02*
X127597676Y-95261904D01*
X127597676Y-95261904D02*
X127692914Y-95214285D01*
X127692914Y-95214285D02*
X127883390Y-95166666D01*
X127883390Y-95166666D02*
X128026247Y-95166666D01*
X128026247Y-95166666D02*
X128216723Y-95214285D01*
X128216723Y-95214285D02*
X128311961Y-95261904D01*
X128311961Y-95261904D02*
X128407200Y-95357142D01*
X128407200Y-95357142D02*
X128454819Y-95499999D01*
X128454819Y-95499999D02*
X128454819Y-95738094D01*
X128454819Y-94214285D02*
X128454819Y-94785713D01*
X128454819Y-94499999D02*
X127454819Y-94499999D01*
X127454819Y-94499999D02*
X127597676Y-94595237D01*
X127597676Y-94595237D02*
X127692914Y-94690475D01*
X127692914Y-94690475D02*
X127740533Y-94785713D01*
X131550057Y-83595238D02*
X131502438Y-83690476D01*
X131502438Y-83690476D02*
X131407200Y-83785714D01*
X131407200Y-83785714D02*
X131264342Y-83928571D01*
X131264342Y-83928571D02*
X131216723Y-84023809D01*
X131216723Y-84023809D02*
X131216723Y-84119047D01*
X131454819Y-84071428D02*
X131407200Y-84166666D01*
X131407200Y-84166666D02*
X131311961Y-84261904D01*
X131311961Y-84261904D02*
X131121485Y-84309523D01*
X131121485Y-84309523D02*
X130788152Y-84309523D01*
X130788152Y-84309523D02*
X130597676Y-84261904D01*
X130597676Y-84261904D02*
X130502438Y-84166666D01*
X130502438Y-84166666D02*
X130454819Y-84071428D01*
X130454819Y-84071428D02*
X130454819Y-83880952D01*
X130454819Y-83880952D02*
X130502438Y-83785714D01*
X130502438Y-83785714D02*
X130597676Y-83690476D01*
X130597676Y-83690476D02*
X130788152Y-83642857D01*
X130788152Y-83642857D02*
X131121485Y-83642857D01*
X131121485Y-83642857D02*
X131311961Y-83690476D01*
X131311961Y-83690476D02*
X131407200Y-83785714D01*
X131407200Y-83785714D02*
X131454819Y-83880952D01*
X131454819Y-83880952D02*
X131454819Y-84071428D01*
X131454819Y-82690476D02*
X131454819Y-83261904D01*
X131454819Y-82976190D02*
X130454819Y-82976190D01*
X130454819Y-82976190D02*
X130597676Y-83071428D01*
X130597676Y-83071428D02*
X130692914Y-83166666D01*
X130692914Y-83166666D02*
X130740533Y-83261904D01*
%TO.C,SW1*%
D11*
X124229050Y-102460000D02*
G75*
G02*
X115070950Y-102460000I-4579050J0D01*
G01*
X115070950Y-102460000D02*
G75*
G02*
X124229050Y-102460000I4579050J0D01*
G01*
X113600000Y-96350000D02*
X125900000Y-96350000D01*
X113600000Y-98470000D02*
X113600000Y-96350000D01*
X113600000Y-103470000D02*
X113600000Y-101530000D01*
X113600000Y-108650000D02*
X113600000Y-106530000D01*
X125900000Y-96350000D02*
X125900000Y-98470000D01*
X125900000Y-101530000D02*
X125900000Y-103470000D01*
X125900000Y-106530000D02*
X125900000Y-108650000D01*
X125900000Y-108650000D02*
X113600000Y-108650000D01*
%TO.C,SW2*%
X125650000Y-94150000D02*
X113350000Y-94150000D01*
X125650000Y-92030000D02*
X125650000Y-94150000D01*
X125650000Y-87030000D02*
X125650000Y-88970000D01*
X125650000Y-81850000D02*
X125650000Y-83970000D01*
X113350000Y-94150000D02*
X113350000Y-92030000D01*
X113350000Y-88970000D02*
X113350000Y-87030000D01*
X113350000Y-83970000D02*
X113350000Y-81850000D01*
X113350000Y-81850000D02*
X125650000Y-81850000D01*
X123979050Y-87960000D02*
G75*
G02*
X114820950Y-87960000I-4579050J0D01*
G01*
X114820950Y-87960000D02*
G75*
G02*
X123979050Y-87960000I4579050J0D01*
G01*
%TO.C,Q2*%
X134100000Y-103270000D02*
G75*
G02*
X129661522Y-105108478I-2600000J0D01*
G01*
X129661522Y-101431522D02*
G75*
G02*
X134100001Y-103270000I1838478J-1838478D01*
G01*
X129650000Y-101470000D02*
X129650000Y-105070000D01*
%TO.C,R1*%
X136130000Y-99270000D02*
X136460000Y-99270000D01*
X138870000Y-99270000D02*
X138540000Y-99270000D01*
X136130000Y-92730000D02*
X136130000Y-99270000D01*
X136460000Y-92730000D02*
X136130000Y-92730000D01*
X138540000Y-92730000D02*
X138870000Y-92730000D01*
X138870000Y-92730000D02*
X138870000Y-99270000D01*
%TO.C,J1*%
X138270000Y-86120000D02*
X140920000Y-86120000D01*
X140920000Y-88880000D02*
X140920000Y-86120000D01*
X138270000Y-88880000D02*
X138270000Y-86120000D01*
X138270000Y-88880000D02*
X140920000Y-88880000D01*
X137000000Y-88880000D02*
X135620000Y-88880000D01*
X135620000Y-88880000D02*
X135620000Y-87500000D01*
%TO.C,D1*%
X134500000Y-95500000D02*
G75*
G02*
X129500000Y-95500000I-2500000J0D01*
G01*
X129500000Y-95500000D02*
G75*
G02*
X134500000Y-95500000I2500000J0D01*
G01*
X132000000Y-92510000D02*
G75*
G02*
X133544830Y-98060000I0J-2990000D01*
G01*
X130455170Y-98060000D02*
G75*
G02*
X132000000Y-92510000I1544830J2560000D01*
G01*
X130455000Y-98060000D02*
X133545000Y-98060000D01*
%TO.C,Q1*%
X133600000Y-87770000D02*
G75*
G02*
X129161522Y-89608478I-2600000J0D01*
G01*
X129161522Y-85931522D02*
G75*
G02*
X133600001Y-87770000I1838478J-1838478D01*
G01*
X129150000Y-85970000D02*
X129150000Y-89570000D01*
%TD*%
M02*
