%TF.GenerationSoftware,KiCad,Pcbnew,10.0.7*%
%TF.CreationDate,2026-10-09T11:17:46+05:30*%
%TF.ProjectId,OR_GATE,4f525f47-4154-4452-9e6b-696361645f70,rev?*%
%TF.SameCoordinates,Original*%
%TF.FileFunction,Copper,L1,Top*%
%TF.FilePolarity,Positive*%
%FSLAX46Y46*%
G04 Gerber Fmt 4.6, Leading zero omitted, Abs format (unit mm)*
G04 Created by KiCad (PCBNEW 10.0.7) date 2026-10-09 11:17:46*
%MOMM*%
%LPD*%
G01*
G04 APERTURE LIST*
%TA.AperFunction,ComponentPad*%
%ADD10O,3.000000X2.500000*%
%TD*%
%TA.AperFunction,ComponentPad*%
%ADD11O,1.500000X1.050000*%
%TD*%
%TA.AperFunction,ComponentPad*%
%ADD12R,1.500000X1.050000*%
%TD*%
%TA.AperFunction,ComponentPad*%
%ADD13C,1.600000*%
%TD*%
%TA.AperFunction,ComponentPad*%
%ADD14C,1.700000*%
%TD*%
%TA.AperFunction,ComponentPad*%
%ADD15R,1.700000X1.700000*%
%TD*%
%TA.AperFunction,ComponentPad*%
%ADD16C,1.800000*%
%TD*%
%TA.AperFunction,ComponentPad*%
%ADD17R,1.800000X1.800000*%
%TD*%
%TA.AperFunction,Conductor*%
%ADD18C,0.200000*%
%TD*%
G04 APERTURE END LIST*
D10*
%TO.P,SW1,2,2_2*%
%TO.N,VCC*%
X113500000Y-100000000D03*
X126000000Y-100000000D03*
%TO.P,SW1,1,1_1*%
%TO.N,Net-(Q2-B)*%
X113500000Y-105000000D03*
X126000000Y-105000000D03*
%TD*%
%TO.P,SW2,1,1_1*%
%TO.N,Net-(Q1-B)*%
X125750000Y-90500000D03*
X113250000Y-90500000D03*
%TO.P,SW2,2,2_2*%
%TO.N,VCC*%
X125750000Y-85500000D03*
X113250000Y-85500000D03*
%TD*%
D11*
%TO.P,Q2,3,E_3*%
%TO.N,Net-(D1-A)*%
X131500000Y-104540000D03*
%TO.P,Q2,2,B_2*%
%TO.N,Net-(Q2-B)*%
X131500000Y-103270000D03*
D12*
%TO.P,Q2,1,C_1*%
%TO.N,VCC*%
X131500000Y-102000000D03*
%TD*%
D13*
%TO.P,R1,2*%
%TO.N,Net-(D1-K)*%
X137500000Y-99810000D03*
%TO.P,R1,1*%
%TO.N,GND*%
X137500000Y-92190000D03*
%TD*%
D14*
%TO.P,J1,2,Pin_2_2*%
%TO.N,GND*%
X139540000Y-87500000D03*
D15*
%TO.P,J1,1,Pin_1_1*%
%TO.N,VCC*%
X137000000Y-87500000D03*
%TD*%
D16*
%TO.P,D1,2,A_2*%
%TO.N,Net-(D1-A)*%
X132000000Y-94230000D03*
D17*
%TO.P,D1,1,K_1*%
%TO.N,Net-(D1-K)*%
X132000000Y-96770000D03*
%TD*%
D11*
%TO.P,Q1,3,E_3*%
%TO.N,Net-(D1-A)*%
X131000000Y-89040000D03*
%TO.P,Q1,2,B_2*%
%TO.N,Net-(Q1-B)*%
X131000000Y-87770000D03*
D12*
%TO.P,Q1,1,C_1*%
%TO.N,VCC*%
X131000000Y-86500000D03*
%TD*%
%TO.N,Net-(D1-A)*%
D18*
X132000000Y-94230000D02*
X130450000Y-95780000D01*
X131000000Y-93230000D02*
X131000000Y-89040000D01*
X132000000Y-94230000D02*
X131000000Y-93230000D01*
%TO.N,VCC*%
X113500000Y-100000000D02*
X126000000Y-100000000D01*
X125750000Y-85500000D02*
X113250000Y-85500000D01*
%TO.N,Net-(Q1-B)*%
X125750000Y-90500000D02*
X113250000Y-90500000D01*
%TO.N,Net-(Q2-B)*%
X126000000Y-105000000D02*
X113500000Y-105000000D01*
%TO.N,VCC*%
X129500000Y-85500000D02*
X125750000Y-85500000D01*
X130500000Y-86500000D02*
X129500000Y-85500000D01*
X131000000Y-86500000D02*
X130500000Y-86500000D01*
X110500000Y-109000000D02*
X110500000Y-103000000D01*
X139000000Y-105000000D02*
X135000000Y-109000000D01*
X110500000Y-103000000D02*
X113500000Y-100000000D01*
X135000000Y-109000000D02*
X110500000Y-109000000D01*
X136000000Y-102000000D02*
X139000000Y-105000000D01*
X131500000Y-102000000D02*
X136000000Y-102000000D01*
%TO.N,Net-(Q1-B)*%
X125750000Y-88250000D02*
X125750000Y-90500000D01*
X126230000Y-87770000D02*
X125750000Y-88250000D01*
X131000000Y-87770000D02*
X126230000Y-87770000D01*
%TO.N,Net-(Q2-B)*%
X126000000Y-105000000D02*
X127500000Y-106500000D01*
X133500000Y-106500000D02*
X127500000Y-106500000D01*
X135000000Y-105000000D02*
X133500000Y-106500000D01*
X133500000Y-103500000D02*
X135000000Y-105000000D01*
X131500000Y-103500000D02*
X133500000Y-103500000D01*
X131500000Y-103270000D02*
X131500000Y-103500000D01*
%TO.N,Net-(D1-A)*%
X130450000Y-103990000D02*
X130450000Y-95780000D01*
X131000000Y-104540000D02*
X130450000Y-103990000D01*
X131500000Y-104540000D02*
X131000000Y-104540000D01*
%TO.N,VCC*%
X136000000Y-86500000D02*
X131000000Y-86500000D01*
X137000000Y-87500000D02*
X136000000Y-86500000D01*
%TO.N,GND*%
X137500000Y-89540000D02*
X139540000Y-87500000D01*
X137500000Y-92000000D02*
X137500000Y-89540000D01*
%TO.N,Net-(D1-K)*%
X137500000Y-99620000D02*
X134850000Y-99620000D01*
X134850000Y-99620000D02*
X132000000Y-96770000D01*
%TO.N,VCC*%
X137000000Y-87500000D02*
X139500000Y-85000000D01*
X142000000Y-99000000D02*
X142000000Y-85000000D01*
X139000000Y-102000000D02*
X142000000Y-99000000D01*
X139500000Y-85000000D02*
X142000000Y-85000000D01*
X131500000Y-102000000D02*
X139000000Y-102000000D01*
%TD*%
M02*
